<svg width="32" height="32" viewBox="0 0 32 32" fill="none" xmlns="http://www.w3.org/2000/svg">
<path d="M9.01421 29.3337H22.9875C26.6675 29.3337 28.1342 27.0803 28.3075 24.3337L29.0009 13.3203C29.1875 10.4403 26.8942 8.00033 24.0009 8.00033C23.1875 8.00033 22.4409 7.53366 22.0675 6.81366L21.1075 4.88033C20.4942 3.66699 18.8942 2.66699 17.5342 2.66699H14.4809C13.1075 2.66699 11.5075 3.66699 10.8942 4.88033L9.93421 6.81366C9.56087 7.53366 8.81421 8.00033 8.00087 8.00033C5.10754 8.00033 2.81421 10.4403 3.00087 13.3203L3.69421 24.3337C3.85421 27.0803 5.33421 29.3337 9.01421 29.3337Z" stroke="white" stroke-width="1.5" stroke-linecap="round" stroke-linejoin="round"/>
<path opacity="0.4" d="M14 10.667H18" stroke="white" stroke-width="1.5" stroke-linecap="round" stroke-linejoin="round"/>
<path opacity="0.4" d="M15.9993 23.9997C18.386 23.9997 20.3327 22.053 20.3327 19.6663C20.3327 17.2797 18.386 15.333 15.9993 15.333C13.6127 15.333 11.666 17.2797 11.666 19.6663C11.666 22.053 13.6127 23.9997 15.9993 23.9997Z" stroke="#E8E7ED" stroke-width="1.5" stroke-linecap="round" stroke-linejoin="round"/>
</svg>
