<svg width="287" height="287" viewBox="0 0 287 287" fill="none" xmlns="http://www.w3.org/2000/svg">
<path d="M259.081 202.245L221.811 115.201C209.189 85.6708 185.969 84.4801 170.37 112.582L147.865 153.186C136.434 173.786 115.12 175.572 100.354 157.116L97.7348 153.782C82.3741 134.492 60.7025 136.873 49.6285 158.902L29.1476 199.983C14.7396 228.561 35.5777 262.259 67.4897 262.259H219.429C250.389 262.259 271.227 230.704 259.081 202.245Z" stroke="white" stroke-width="2" stroke-linecap="round" stroke-linejoin="round"/>
<path opacity="0.4" d="M83.9222 95.5543C103.651 95.5543 119.645 79.5608 119.645 59.8319C119.645 40.1029 103.651 24.1094 83.9222 24.1094C64.1932 24.1094 48.1997 40.1029 48.1997 59.8319C48.1997 79.5608 64.1932 95.5543 83.9222 95.5543Z" stroke="white" stroke-width="2" stroke-linecap="round" stroke-linejoin="round"/>
</svg>
