<svg width="32" height="32" viewBox="0 0 32 32" fill="none" xmlns="http://www.w3.org/2000/svg">
<path d="M28.9059 22.6129L24.7326 12.8662C23.3192 9.55952 20.7192 9.42619 18.9726 12.5729L16.4526 17.1195C15.1726 19.4262 12.7859 19.6262 11.1326 17.5595L10.8393 17.1862C9.11925 15.0262 6.69258 15.2929 5.45258 17.7595L3.15925 22.3595C1.54592 25.5595 3.87925 29.3329 7.45258 29.3329H24.4659C27.9326 29.3329 30.2659 25.7995 28.9059 22.6129Z" stroke="white" stroke-width="1.5" stroke-linecap="round" stroke-linejoin="round"/>
<path opacity="0.4" d="M9.29297 10.667C11.5021 10.667 13.293 8.87613 13.293 6.66699C13.293 4.45785 11.5021 2.66699 9.29297 2.66699C7.08383 2.66699 5.29297 4.45785 5.29297 6.66699C5.29297 8.87613 7.08383 10.667 9.29297 10.667Z" stroke="white" stroke-width="1.5" stroke-linecap="round" stroke-linejoin="round"/>
</svg>
