<svg width="32" height="32" viewBox="0 0 32 32" fill="none" xmlns="http://www.w3.org/2000/svg">
<path d="M23.0533 5.52032L22.96 10.5736C22.9467 11.267 23.3867 12.187 23.9467 12.6003L27.2534 15.1069C29.3734 16.7069 29.0267 18.667 26.4934 19.467L22.1867 20.8136C21.4667 21.0403 20.7067 21.827 20.52 22.5603L19.4934 26.4803C18.68 29.5736 16.6533 29.8803 14.9733 27.1603L12.6267 23.3603C12.2 22.6669 11.1867 22.147 10.3867 22.187L5.93338 22.4136C2.74671 22.5736 1.84003 20.7336 3.92003 18.307L6.56 15.2403C7.05334 14.667 7.28 13.6003 7.05333 12.8803L5.70673 8.57362C4.92007 6.04029 6.33338 4.64031 8.85338 5.46697L12.7867 6.76031C13.4534 6.97364 14.4534 6.82696 15.0134 6.41363L19.1201 3.45363C21.3334 1.85363 23.1067 2.78698 23.0533 5.52032Z" stroke="#E8E7ED" stroke-width="1.5" stroke-linecap="round" stroke-linejoin="round"/>
<path opacity="0.4" d="M29.2133 29.333L25.1733 25.293" stroke="#E8E7ED" stroke-width="1.5" stroke-linecap="round" stroke-linejoin="round"/>
</svg>
