<svg width="17" height="16" viewBox="0 0 17 16" fill="none" xmlns="http://www.w3.org/2000/svg">
<path d="M6.72638 12.6667C6.72638 13.4 7.32638 14 8.05971 14C8.79305 14 9.39305 13.4 9.39305 12.6667C9.39305 11.9333 8.79305 11.3333 8.05971 11.3333C7.32638 11.3333 6.72638 11.9333 6.72638 12.6667Z" stroke="#E8E7ED" stroke-width="1.5"/>
<path d="M6.72638 3.33317C6.72638 4.0665 7.32638 4.6665 8.05971 4.6665C8.79305 4.6665 9.39305 4.0665 9.39305 3.33317C9.39305 2.59984 8.79305 1.99984 8.05971 1.99984C7.32638 1.99984 6.72638 2.59984 6.72638 3.33317Z" stroke="#E8E7ED" stroke-width="1.5"/>
<path opacity="0.4" d="M6.72638 8.00016C6.72638 8.7335 7.32638 9.3335 8.05971 9.3335C8.79305 9.3335 9.39305 8.7335 9.39305 8.00016C9.39305 7.26683 8.79305 6.66683 8.05971 6.66683C7.32638 6.66683 6.72638 7.26683 6.72638 8.00016Z" stroke="#E8E7ED" stroke-width="1.5"/>
</svg>
