<svg width="29" height="28" viewBox="0 0 29 28" fill="none" xmlns="http://www.w3.org/2000/svg">
<path d="M25.77 12.1796L24.6267 17.0563C23.6467 21.2679 21.71 22.9713 18.07 22.6213C17.4867 22.5746 16.8567 22.4696 16.18 22.3063L14.22 21.8396C9.35501 20.6846 7.85001 18.2813 8.99334 13.4046L10.1367 8.51627C10.37 7.5246 10.65 6.66127 11 5.9496C12.365 3.12627 14.6867 2.36794 18.5833 3.2896L20.5317 3.7446C25.42 4.88794 26.9133 7.30294 25.77 12.1796Z" stroke="#E8E7ED" stroke-width="1.5" stroke-linecap="round" stroke-linejoin="round"/>
<path opacity="0.4" d="M18.07 22.6219C17.3467 23.1119 16.4367 23.5202 15.3284 23.8819L13.485 24.4885C8.85337 25.9819 6.41503 24.7335 4.91003 20.1019L3.4167 15.4935C1.92337 10.8619 3.16003 8.41186 7.7917 6.91853L9.63503 6.31186C10.1134 6.1602 10.5684 6.03186 11 5.9502C10.65 6.66186 10.37 7.5252 10.1367 8.51686L8.99337 13.4052C7.85003 18.2819 9.35503 20.6852 14.22 21.8402L16.18 22.3069C16.8567 22.4702 17.4867 22.5752 18.07 22.6219Z" stroke="#E8E7ED" stroke-width="1.5" stroke-linecap="round" stroke-linejoin="round"/>
</svg>
