<svg width="28" height="28" viewBox="0 0 28 28" fill="none" xmlns="http://www.w3.org/2000/svg">
<path d="M2.3335 10.4997V7.58301C2.3335 4.67801 4.6785 2.33301 7.5835 2.33301H10.5002" stroke="#E8E7ED" stroke-width="1.5" stroke-linecap="round" stroke-linejoin="round"/>
<path d="M17.5 2.33301H20.4167C23.3217 2.33301 25.6667 4.67801 25.6667 7.58301V10.4997" stroke="#E8E7ED" stroke-width="1.5" stroke-linecap="round" stroke-linejoin="round"/>
<path d="M25.6665 18.667V20.417C25.6665 23.322 23.3215 25.667 20.4165 25.667H18.6665" stroke="#E8E7ED" stroke-width="1.5" stroke-linecap="round" stroke-linejoin="round"/>
<path d="M10.5002 25.6667H7.5835C4.6785 25.6667 2.3335 23.3217 2.3335 20.4167V17.5" stroke="#E8E7ED" stroke-width="1.5" stroke-linecap="round" stroke-linejoin="round"/>
<g opacity="0.4">
<path d="M19.8337 11.083V16.9163C19.8337 19.2497 18.667 20.4163 16.3337 20.4163H11.667C9.33366 20.4163 8.16699 19.2497 8.16699 16.9163V11.083C8.16699 8.74967 9.33366 7.58301 11.667 7.58301H16.3337C18.667 7.58301 19.8337 8.74967 19.8337 11.083Z" stroke="#E8E7ED" stroke-width="1.5" stroke-linecap="round" stroke-linejoin="round"/>
<path d="M22.1668 14H5.8335" stroke="#E8E7ED" stroke-width="1.5" stroke-linecap="round" stroke-linejoin="round"/>
</g>
</svg>
