<svg width="26" height="12" viewBox="0 0 26 12" fill="none" xmlns="http://www.w3.org/2000/svg">
<path d="M5.57098 8.29L5.2037 8.59V1C5.2037 0.734784 5.07027 0.48043 4.83277 0.292893C4.59526 0.105357 4.27313 0 3.93725 0C3.60136 0 3.27923 0.105357 3.04172 0.292893C2.80422 0.48043 2.67079 0.734784 2.67079 1V8.59L2.30351 8.29C2.06504 8.1017 1.74159 7.99591 1.40433 7.99591C1.06707 7.99591 0.743624 8.1017 0.505145 8.29C0.266666 8.4783 0.13269 8.7337 0.13269 9C0.13269 9.2663 0.266666 9.5217 0.505145 9.71L3.03806 11.71C3.15851 11.801 3.30053 11.8724 3.45599 11.92C3.60759 11.9729 3.7715 12.0002 3.93725 12.0002C4.10299 12.0002 4.2669 11.9729 4.4185 11.92C4.57396 11.8724 4.71599 11.801 4.83643 11.71L7.36935 9.71C7.48743 9.61676 7.5811 9.50607 7.645 9.38425C7.70891 9.26243 7.7418 9.13186 7.7418 9C7.7418 8.86814 7.70891 8.73757 7.645 8.61575C7.5811 8.49393 7.48743 8.38324 7.36935 8.29C7.25126 8.19676 7.11108 8.1228 6.9568 8.07234C6.80251 8.02188 6.63716 7.99591 6.47016 7.99591C6.30317 7.99591 6.13781 8.02188 5.98353 8.07234C5.82924 8.1228 5.68906 8.19676 5.57098 8.29ZM11.536 2H24.2006C24.5365 2 24.8586 1.89464 25.0961 1.70711C25.3336 1.51957 25.467 1.26522 25.467 1C25.467 0.734784 25.3336 0.48043 25.0961 0.292893C24.8586 0.105357 24.5365 0 24.2006 0H11.536C11.2001 0 10.878 0.105357 10.6405 0.292893C10.403 0.48043 10.2695 0.734784 10.2695 1C10.2695 1.26522 10.403 1.51957 10.6405 1.70711C10.878 1.89464 11.2001 2 11.536 2ZM24.2006 5H11.536C11.2001 5 10.878 5.10536 10.6405 5.29289C10.403 5.48043 10.2695 5.73478 10.2695 6C10.2695 6.26522 10.403 6.51957 10.6405 6.70711C10.878 6.89464 11.2001 7 11.536 7H24.2006C24.5365 7 24.8586 6.89464 25.0961 6.70711C25.3336 6.51957 25.467 6.26522 25.467 6C25.467 5.73478 25.3336 5.48043 25.0961 5.29289C24.8586 5.10536 24.5365 5 24.2006 5ZM24.2006 10H11.536C11.2001 10 10.878 10.1054 10.6405 10.2929C10.403 10.4804 10.2695 10.7348 10.2695 11C10.2695 11.2652 10.403 11.5196 10.6405 11.7071C10.878 11.8946 11.2001 12 11.536 12H24.2006C24.5365 12 24.8586 11.8946 25.0961 11.7071C25.3336 11.5196 25.467 11.2652 25.467 11C25.467 10.7348 25.3336 10.4804 25.0961 10.2929C24.8586 10.1054 24.5365 10 24.2006 10Z" fill="#CCCBD8"/>
</svg>
