<svg width="21" height="20" viewBox="0 0 21 20" fill="none" xmlns="http://www.w3.org/2000/svg">
<g clip-path="url(#clip0_1056_4446)">
<path d="M13.8326 13.3332L10.4992 9.9999M10.4992 9.9999L7.1659 13.3332M10.4992 9.9999V17.4999M17.4909 15.3249C18.3037 14.8818 18.9458 14.1806 19.3158 13.3321C19.6858 12.4835 19.7627 11.5359 19.5344 10.6388C19.3061 9.7417 18.7855 8.94616 18.0548 8.37778C17.3241 7.80939 16.425 7.50052 15.4992 7.4999H14.4492C14.197 6.52427 13.7269 5.61852 13.0742 4.85073C12.4215 4.08295 11.6033 3.47311 10.681 3.06708C9.7587 2.66104 8.75636 2.46937 7.74933 2.50647C6.7423 2.54358 5.75679 2.80849 4.86688 3.28129C3.97697 3.7541 3.20583 4.42249 2.61142 5.23622C2.01701 6.04996 1.61481 6.98785 1.43505 7.9794C1.25529 8.97095 1.30266 9.99035 1.57358 10.961C1.8445 11.9316 2.33194 12.8281 2.99923 13.5832" stroke="white" stroke-width="1.66667" stroke-linecap="round" stroke-linejoin="round"/>
</g>
<defs>
<clipPath id="clip0_1056_4446">
<rect width="20" height="20" fill="white" transform="translate(0.5)"/>
</clipPath>
</defs>
</svg>
